PathFileType	4	(X/Y/Z)	C:\Users\WrightLab\Desktop\Jo\P5V31.trc
DataRate	CameraRate	NumFrames	NumMarkers	Units	OrigDataRate	OrigDataStartFrame	OrigNumFrames
100.00	100.00	       31	19	mm	100.00	341	       907
Frame#	Time	Headset_Front			Headset_Back			Headset_Left			Headset_Right			Left_Shoulder			Right_Shoulder			Sternum			C7			Left Elbow			Right Elbow			Left Wrist			Right Wrist			Left ASIS			Right ASIS			S2			Left Knee			Right Knee			Left Ankle			Right Ankle			
		X1	Y1	Z1	X2	Y2	Z2	X3	Y3	Z3	X4	Y4	Z4	X5	Y5	Z5	X6	Y6	Z6	X7	Y7	Z7	X8	Y8	Z8	X9	Y9	Z9	X10	Y10	Z10	X11	Y11	Z11	X12	Y12	Z12	X13	Y13	Z13	X14	Y14	Z14	X15	Y15	Z15	X16	Y16	Z16	X17	Y17	Z17	X18	Y18	Z18	X19	Y19	Z19	

341	3.400																												-558.59729	1184.11755	-1233.48999				-480.71637	1219.79187	-1011.20288				-423.41074	916.55719	-1254.18262				-117.00510	473.79279	-1304.36584	-478.80710	458.32126	-1295.65527							
342	3.410																												-559.22681	1184.48962	-1230.79016				-483.01736	1220.13208	-1008.91730				-424.92984	916.82178	-1253.48584				-117.45760	472.80820	-1306.85938	-479.77432	457.88345	-1296.12366							
343	3.420																												-559.41876	1185.12964	-1228.91821				-483.22305	1220.24707	-1006.65192				-425.35880	915.78925	-1253.26013				-118.75723	472.68469	-1304.74304	-481.70178	458.76199	-1295.30432							
344	3.430																												-559.55408	1185.10791	-1226.71118				-483.30295	1220.63037	-1004.61060				-426.37338	915.12189	-1253.59766				-119.17680	473.51364	-1304.18872	-482.30594	458.56967	-1295.13904							
345	3.440																												-560.23199	1185.82764	-1224.92676				-484.24023	1220.85278	-1002.10919				-427.00293	914.64270	-1252.97266				-118.90756	474.06772	-1302.70337	-483.48517	458.01236	-1294.76489							
346	3.450																												-560.14594	1186.06555	-1222.97449				-484.37903	1220.96924	-999.81378				-427.43607	914.67273	-1252.21790				-120.08163	478.69662	-1289.07568	-484.05783	457.84866	-1294.76074							
347	3.460																												-560.18939	1186.00415	-1221.73145				-485.64297	1221.09607	-997.55829				-427.85754	914.30518	-1251.96643				-119.65402	479.56033	-1286.72229	-485.21008	458.08865	-1294.36816							
348	3.470																												-560.31842	1185.68408	-1219.51819				-486.12988	1221.04797	-994.79565				-428.94659	914.05530	-1251.34497				-118.97187	480.89221	-1282.96155	-484.97098	457.73926	-1294.54858							
349	3.480																												-559.58069	1185.63965	-1217.24243				-485.37781	1220.54724	-992.57587				-429.75427	913.87988	-1250.99377				-118.88728	481.61798	-1278.39160	-486.28647	458.00366	-1293.48315							
350	3.490																												-559.39301	1186.04651	-1214.86914				-484.88150	1220.20496	-990.03717				-429.65283	913.89630	-1250.53064				-119.01376	481.89056	-1274.45215	-485.79691	457.88223	-1293.30334							
351	3.500																												-559.86279	1186.69324	-1213.11841				-484.78622	1220.05310	-987.76715				-429.43976	913.91864	-1250.17847				-118.92435	480.17111	-1272.93359	-485.93033	457.79898	-1292.87073							
352	3.510																												-559.75299	1186.89185	-1211.08728				-484.32401	1219.42969	-985.19305				-429.54642	913.63586	-1248.85376				-118.63422	480.61038	-1269.37488	-486.02673	458.01871	-1292.98706							
353	3.520																												-559.54718	1186.96887	-1208.67212				-483.66141	1219.37952	-982.47424	-145.98254	901.84528	-1318.16638	-428.78070	913.48846	-1247.95862				-117.40813	483.80463	-1255.33521	-485.83792	457.75735	-1292.70410							
354	3.530																												-559.57770	1187.82642	-1206.14307				-482.68271	1219.09399	-980.54047	-145.85237	902.04639	-1317.46094	-428.43817	913.54675	-1247.47900				-117.19303	485.50772	-1249.86377	-485.52063	457.32724	-1292.44751							
355	3.540																												-559.45740	1188.14966	-1203.59863				-482.32831	1219.25098	-978.50165	-145.76697	903.36847	-1307.44727	-427.91882	913.23529	-1246.90857				-117.03065	486.78915	-1246.33398	-485.01352	457.13339	-1292.15479							
356	3.550																												-559.03699	1188.18372	-1202.15942				-482.63864	1219.24438	-976.41083	-147.86716	903.09412	-1308.33667	-427.70203	913.09406	-1245.02209				-116.95030	487.38083	-1243.43848	-484.95313	457.10492	-1292.12427							
357	3.560				-424.25034	1534.48596	-1112.64612																						-558.08752	1187.75513	-1199.70605				-481.73120	1218.81421	-974.24219	-148.06865	903.79871	-1306.60535	-427.46313	912.95068	-1244.29260				-116.59428	488.77780	-1240.33777	-484.67404	456.95584	-1291.76758							
358	3.570				-427.32339	1559.01074	-1187.34851																						-557.41956	1188.21191	-1197.09460				-481.03827	1218.43481	-971.32965	-147.83780	903.80615	-1306.47034	-427.66235	913.19946	-1242.29980				-115.40325	489.58279	-1236.06299	-483.82608	456.27499	-1292.17444							
359	3.580				-426.84555	1559.02124	-1184.93433																						-556.95239	1188.49670	-1194.61902				-480.39725	1218.42236	-968.96588	-145.71080	903.71014	-1303.50757	-426.85703	912.33368	-1241.09863				-114.15996	490.10092	-1233.82178	-483.41602	456.50876	-1291.66223							
360	3.590				-426.32117	1558.87244	-1182.28918																						-556.60547	1188.70300	-1192.38782				-479.69934	1218.60437	-966.55609	-145.04129	903.89929	-1301.27405	-426.35605	911.88257	-1239.37048				-113.45279	491.27298	-1228.98328	-483.30441	456.37976	-1291.48755							
361	3.600				-425.70010	1558.99109	-1179.65967																						-556.79865	1188.38086	-1189.63342				-479.30115	1218.37427	-963.89972	-144.75249	904.57617	-1299.28162	-425.51041	911.19781	-1238.11572				-113.28702	491.53015	-1227.55322	-482.47537	456.00879	-1290.61584							
362	3.610				-424.97726	1559.32349	-1177.33948																						-556.42932	1188.06287	-1186.83435				-479.08536	1217.99109	-961.09723	-144.30699	903.04730	-1309.87781	-424.95078	910.96515	-1236.84119				-113.28998	492.54947	-1225.49561	-481.83539	455.64636	-1290.06189							
363	3.620				-424.20819	1559.26538	-1174.83301																						-556.17230	1188.27979	-1184.36853				-479.48557	1217.74817	-958.75537	-143.57706	903.15234	-1306.75220	-423.94556	910.43811	-1235.29724				-113.41039	492.87640	-1222.12878	-481.55966	455.63681	-1289.31677							
364	3.630				-423.44138	1558.98206	-1171.83606																						-555.76434	1188.47083	-1181.36292				-478.59735	1217.25598	-956.07367	-142.48438	902.67114	-1303.62842	-422.97113	910.19061	-1234.17896				-114.87675	493.18503	-1220.45984	-481.37402	455.55643	-1288.70105							
365	3.640				-422.71408	1558.80481	-1169.13965																						-554.18030	1188.07935	-1179.74475				-478.28302	1216.75293	-952.94226	-141.90663	903.15607	-1300.45215	-422.41272	909.85120	-1232.38538				-116.31603	492.61975	-1219.33264	-480.53268	454.64999	-1287.94897							
366	3.650				-421.93503	1558.62073	-1167.08459																						-555.07794	1188.80505	-1176.50635				-477.95493	1216.72229	-949.99078	-141.11264	902.43250	-1300.06311	-421.93921	909.59283	-1231.47009				-116.61937	493.76282	-1215.72644	-480.31885	454.03467	-1287.67407							
367	3.660				-420.96564	1558.22510	-1164.13428																						-554.63849	1188.76099	-1173.53955				-478.14182	1216.84485	-947.13568	-140.13962	901.61206	-1301.51794	-422.14624	909.19116	-1229.30273				-116.73975	493.94153	-1213.37817	-478.77130	454.41150	-1286.83496							
368	3.670				-419.95724	1557.89844	-1160.72437																						-554.33594	1187.69055	-1170.19312				-477.45407	1216.75122	-944.36383	-139.88666	902.43115	-1288.11401	-421.43030	909.10590	-1227.61243				-117.85349	493.31555	-1211.58057	-478.44641	454.22025	-1286.31653							
369	3.680				-418.99216	1557.75073	-1158.39270																						-554.53894	1188.03918	-1167.30127				-475.96454	1216.17407	-941.32111	-138.90503	901.46027	-1286.42114	-419.49820	908.69934	-1226.10901				-117.90115	493.62546	-1210.66846	-478.15674	454.45679	-1285.60425							
370	3.690				-417.86545	1557.38159	-1154.95166																						-553.95685	1188.54822	-1164.07678				-475.93842	1215.63538	-938.26874	-139.23181	900.18658	-1285.17175	-417.70956	908.36835	-1224.68274				-118.08559	494.63406	-1208.86707	-477.61066	454.83621	-1284.83386							
371	3.700				-416.78317	1556.98206	-1152.30542																						-552.15900	1187.27771	-1160.91553				-475.71509	1215.62024	-934.79022	-135.66832	901.61371	-1281.63721	-417.07944	907.91803	-1220.93994				-118.15971	494.14682	-1205.99866	-476.72131	454.22769	-1284.91870							
